<?xml version="1.0" encoding="UTF-8"?>
<svg viewBox="0 0 640 480" xmlns="http://www.w3.org/2000/svg">
 <g fill-rule="evenodd" stroke-width=".312">
  <path d="m16.677 166.58l-8.7094-3.8708v-4.8385l8.2255-9.6771-4.8385-7.7417 3.387-8.7094 10.645-3.8708 12.58-5.8063 10.645-7.2578 7.7417 4.3547 0.4839 5.3224-2.4193 6.2901-4.3547-1.4516 0.9677 16.935 6.2901 22.257h-6.7739l-3.8708-14.032-2.4193-6.774-0.9677-9.6771-2.9031 9.6771 4.3547 5.3224 1.4516 6.774-5.8062 4.8385-2.4193-1.9354 0.9677-7.7417-4.8386-9.6771-6.2901 2.9031v15.967l6.774 5.8063v1.9354h-12.096l-1.9354-3.387v-10.645l-0.9677-2.9031h-2.4193l-3.387 6.2901 4.3547 1.4516-1.4516 3.8708z"/>
  <path d="m44.374 128.35l-1.0851 9.6771-2.9031 9.6771 4.3547 5.3224 1.4516 6.774-5.8062 4.8385-2.4193-1.9354 0.9677-7.7417-4.8386-10.161 1.4759-12.294c1.9077-6.1757 5.5262-8.2457 8.8025-4.1572z"/>
  <path d="m16.194 148.19l-4.4893-8.2255 3.0377-8.2255c8.8025 0.35162 7.3408 13.02 13.064 16.451v15.967l6.774 5.8063v1.9354h-12.096l-1.9354-3.387v-10.645l-0.9677-2.9031-3.387-6.774z"/>
  <path d="m48.612 114.8c4.516-1.4516 6.8546 1.6935 7.7417 4.3547 3.2257 6.2901 0.16129 8.4674-1.9354 11.612l-4.3547-1.4516-3.4629-7.2578-2.8652-3.6289 4.8765-3.6289z"/>
  <path d="m66.529 170.9l6.774 3.8708h10.645l-1.9354-4.3547-4.3547 0.4839-3.387-3.387v-7.7417l6.2901-5.8063 3.387-13.548h3.8708v12.096l0.9677 4.3547 1.9354 5.8063-1.4516 11.129h15.967l4.8386-2.4193-10.161-4.3547-2.4193-32.902-4.8385-15 1.9354-4.3547v-35.805l6.532-0.9677 1.2096-3.387c-1.6935-7.5804-3.387-10.322-10.161-14.032h-7.7417c-1.2903 1.4516-1.8548 4.1128-0.9677 7.9836l-1.9354 6.532-6.774 6.2901-1.9354 38.224 2.4193 4.8386-0.4839 16.451-6.2901 10.645-1.9354 19.354z"/>
  <path d="m86.851 134.61l-4.3547-9.6771v-9.1932c-2.9031-13.709 2.9031-24.999-1.9354-38.224l-5.8063 3.8708 0.4839 34.354 3.387 8.7094-0.4839 9.6771 8.7094 0.4839z"/>
  <path d="m86.851 140.41l0.9677 12.096 0.9677 4.3547 1.9354 5.8063-1.4516 11.129h15.967l4.8386-2.4193-10.161-4.3547-2.4193-32.902-9.6771-17.903-6.2901-4.8386-7.7417 4.8385 1.4516 8.2255 11.612 15.967z"/>
  <path d="m94.592 78.963l6.532-0.9677 1.2096-3.387c-1.6935-7.5804-3.387-10.322-10.161-14.032h-7.7417c-1.2903 1.4516-1.8548 4.1128-0.9677 7.9836 1.6567 4.8362 5.0242 8.988 11.129 10.403z"/>
  <path d="m152.17 114.28l1.4516-18.87 3.8708-9.1932-1.9354-17.419-3.8708-6.2901 2.4193-4.8385 6.774 0.4838 2.9031-3.8708-2.395-6.4561-1.9597-3.7291-3.387-5.7819-11.612 1.4516-5.0046 6.031-0.8847 12.556-4.2717 5.6058-6.774 20.806 0.4839 15.483 2.4193 17.903-0.5669 11.353 8.3085 3.1623-1.4516 7.7417-10.645 20.806-5.3224 10.645 14.032 6.2901 7.7417 0.4839-0.4838-3.8708-8.2255-6.774 13.064-22.257 0.9677-9.6771 6.2901 2.4193v16.935l11.612 19.354-0.9677 2.4193 18.386-0.9677-1.4516-1.9354-11.612-5.3224-8.2255-34.838-9.6771-19.838z"/>
  <path d="m152.17 117.36c-3.4943-6.6929-9.0415-8.938-15.615-7.7618-1.5251 5.6369-0.99733 15.379 5.3467 20.332l5.9136 6.1241 6.2901 2.4193v16.935l11.612 19.354-0.9677 2.4193 18.386-0.9677-1.4516-1.9354-11.612-5.3224-8.2255-34.838-9.6771-16.759z"/>
  <path d="m134.72 113.26c1.0541-11.08 3.8188-17.712 2.1358-28.108l8.6608-16.036c-0.61549-5.9804-3.2838-9.2237-6.9786-10.756l-4.2717 5.6058-6.774 20.806 0.4839 15.483 2.4193 17.903-0.5669 11.353 7.9664 1.1094 1.1195-5.735-4.1945-11.625z"/>
  <path d="m154.11 57.674c3.2257 1.266 7.4778-0.54731 9.6771-3.387 0.8408-8.4016-2.7662-11.671-7.7417-15.967l-11.612 1.4516-5.0046 6.031-0.8847 12.556c4.5045 2.509 10.378 2.9652 15.566-0.68426z"/>
  <path d="m201.99 171.35c-1.8334-2.404-2.6404-6.1766-1.7367-10.291l5.7109-6.9741 5.7109-1.1578 2.2896 14.923-2.8425 5.0007 0.921 3.9743 15.291-0.1313 6.2898-0.2627-1.1266-3.6461-10.102-1.4516 3.387-40.16 0.9677-10.161h7.2578v-8.2255l-6.774-6.2901-1.4516-2.4193 0.4838-7.7417c-0.9677-11.774 5.5916-21.153-0.50816-33.611l-3.8465-4.6138v-5.8062l7.4826 0.6843 3.4457-5.3224c0.05394-7.0526-6.3927-12.052-12.839-15.684l-9.7014 3.387-3.8708 3.387-1.4516 12.096-7.7417 15 2.9031 14.516 4.3547 7.7417-1.4516 8.7094c-4.9903 5.7476-3.1379 13.548 1.4516 20.322l2.9031 15.967 0.3665 6.1241-9.5941 4.5551-3.7291 11.187-6.3974 7.1647 5.2981 13.064c6.9892 2.8211 13.294 1.1944 8.6507-3.8536z"/>
  <path d="m201.99 171.35c-1.8334-2.404-2.6404-6.1766-1.7367-10.291l5.7109-6.9741 5.7109-2.8684 8.9747-8.4106c-3.0186-17.154 0.12134-45.598-18.293-47.355-4.078 7.5723-3.0239 15.487 2.1358 21.69l2.9031 15.967 0.3665 6.1241-9.5941 4.5551-3.7291 11.187-6.3974 7.1647 5.2981 13.064c6.9892 2.8211 13.294 1.1944 8.6507-3.8536z"/>
  <path d="m223.73 114.41l3.0205 6.6038h7.2578v-8.2255l-6.774-6.2901-1.4516-2.4193-10.807-11.163c-2.9909-15.047-5.6396-29.409-11.026-35.218l-6.7153 8.1568 2.9031 14.516 4.3547 7.7417 4.7069 12.815 14.53 13.483z"/>
  <path d="m221.91 52.307l7.4826 0.6843 3.4457-5.3224c0.05394-7.0526-6.3927-12.052-12.839-15.684l-9.7014 3.387-3.8708 3.387-1.4516 12.096 16.935 1.4516z"/>
  <path d="m272.82 148.49c0.16128 7.0965 1.8622 18.128-0.029358 27.277-0.80643 1.9354 16.632 1.7398 25.986 1.4172-0.48386-1.2903-0.96771-3.9491-1.4516-5.2394-4.516-2.4193-9.032-2.1015-13.548-4.5207-0.64514-1.9354-1.2903-5.2394-1.9354-7.1748 0-5.1611 3.4105-12.71 3.4105-17.871 3.0644-2.258 2.7183-2.1286 5.7827-4.3866 0.16128-15 0.3193-29.657-2.5889-44.656 2.4193 6.4514 5.7191 2.7608 10.113 11.979 0.54016 3.575 1.381 6.503 4.3304 8.0008 4.2337 1.3306 5.7428-1.65 5.4244-2.8124-0.88648-3.2358-4.0108-6.3808-5.0995-8.0743-5.32-5.0633-6.5344-12.822-10.728-17.177-0.3226-26.854-2.0362-33.072-8.7094-42.579 0.32254-1.9354 0.64514-3.8708 0.96768-5.8062 2.0967-0.16128 4.1934-0.32257 6.2901-0.48385 0.60599-4.1104 2.3754-9.3397-1.4516-14.516-0.48386-2.5806-3.5334-12.776-10.562-8.7924-6.1045 0.85031-6.0506 4.4377-9.7601 7.3408-0.16126 3.7096-0.32257 7.4191-0.48386 11.129 1.2903 0.96771 2.5806 1.9354 3.8708 2.9031 0.16128 0.96771 0.32257 1.9354 0.48386 2.9031-2.258 3.5483-4.516 7.0965-6.774 10.645-0.32257 2.7419-0.64514 5.4837-0.96771 8.2255 0.8064 8.7094 1.6128 17.419 2.4193 26.128-0.48389 3.2257-0.96774 6.4514-1.4516 9.6771-0.16128 2.5806-0.32257 5.1611-0.48386 7.7417 0.48386 0.9677 0.96771 1.9354 1.4515 2.9031 2.0967 9.3545 3.8513 20.591 5.948 29.945-7.0965 6.2901-13.851 10.698-20.948 16.989-5.7256 3.7902-9.8384 3.3063-7.4997 10.645 0.48383 5.4837 1.2096 10.484 1.6935 15.967 2.9031 1.4516 4.5966 0.48386 5.8063-1.6935 0.48384-3.8708 0-8.7094 0.48384-12.58 2.0967-3.2257 3.2257-3.0644 5.3224-6.2901 4.1934-1.4516 10.493-5.7111 14.687-7.1627z"/>
  <path d="m272.65 149.35c3.5827-3.3386 6.4561-1.4712 9.1932-4.5794l9.1932-6.774c0.16128-15-3.684-41.416-13.317-49.997-3.221-0.70888-10.876 0.80505-11.36 4.0308-0.16128 2.5806-0.32257 5.1611-0.48386 7.7417 0.48386 0.9677 0.96771 1.9354 1.4515 2.9031 2.0967 9.3545 5.2198 21.446 10.054 27.892-8.6362 3.382-17.957 12.751-25.053 19.041-5.7256 3.7902-9.8384 3.3063-7.4997 10.645 0.48383 5.4837 1.2096 10.484 1.6935 15.967 2.9031 1.4516 4.5966 0.48386 5.8063-1.6935 0.48384-3.8708 0-8.7094 0.48384-12.58 2.0967-3.2257 3.2257-3.0644 5.3224-6.2901 4.1934-1.4516 10.322-4.8557 14.516-6.3073z"/>
  <path d="m277.01 64.447c0.32257-9.5158-0.80643-18.548-3.387-22.257 0.3226-1.9354-4.9998 2.258-7.2578 5.8062-0.32257 2.7419-0.64514 5.4837-0.96771 8.2255 0.8064 8.7094 0.64514 21.29 1.4515 29.999-0.24191 1.6128 3.293 7.813 4.9699 16.061 1.1039 5.43 2.5909 10.174 8.2359 13.884 3.7096-0.72579 2.2211-10.881-1.7039-17.997-4.9748-9.0185-2.8732-27.512-1.341-33.722z"/>
  <path d="m283.78 42.674c0.32254-1.9354 0.64514-3.8708 0.96768-5.8062 2.0967-0.16128 4.1934-0.32257 6.2901-0.48385 0.60599-4.1104 2.3754-9.3397-1.4516-14.516-0.48386-2.5806-3.5334-12.776-10.562-8.7924-6.1045 0.85031-6.0506 4.4377-9.7601 7.3408-0.16126 3.7096-0.32257 7.4191-0.48386 11.129 1.2903 0.96771 2.5806 1.9354 3.8708 2.9031 0.16128 0.96771 0.32257 1.9354 0.48386 2.9031-2.258 3.5483 13.225 9.032 10.645 5.3224z"/>
 </g>
</svg>
