<?xml version="1.0" encoding="UTF-8" standalone="no"?>
<!-- Created with Inkscape (http://www.inkscape.org/) -->

<svg
   xmlns:dc="http://purl.org/dc/elements/1.1/"
   xmlns:cc="http://creativecommons.org/ns#"
   xmlns:rdf="http://www.w3.org/1999/02/22-rdf-syntax-ns#"
   xmlns:svg="http://www.w3.org/2000/svg"
   xmlns="http://www.w3.org/2000/svg"
   xmlns:xlink="http://www.w3.org/1999/xlink"
   xmlns:sodipodi="http://sodipodi.sourceforge.net/DTD/sodipodi-0.dtd"
   xmlns:inkscape="http://www.inkscape.org/namespaces/inkscape"
   width="210mm"
   height="297mm"
   viewBox="0 0 744.09448819 1052.3622047"
   id="svg4125"
   version="1.1"
   inkscape:version="0.91 r13725"
   sodipodi:docname="icons.svg">
  <defs
     id="defs4127" />
  <sodipodi:namedview
     id="base"
     pagecolor="#ffffff"
     bordercolor="#666666"
     borderopacity="1.0"
     inkscape:pageopacity="0.0"
     inkscape:pageshadow="2"
     inkscape:zoom="4"
     inkscape:cx="105.11032"
     inkscape:cy="936.29106"
     inkscape:document-units="px"
     inkscape:current-layer="layer1"
     showgrid="false"
     inkscape:window-width="1280"
     inkscape:window-height="975"
     inkscape:window-x="0"
     inkscape:window-y="0"
     inkscape:window-maximized="1" />
  <metadata
     id="metadata4130">
    <rdf:RDF>
      <cc:Work
         rdf:about="">
        <dc:format>image/svg+xml</dc:format>
        <dc:type
           rdf:resource="http://purl.org/dc/dcmitype/StillImage" />
        <dc:title />
      </cc:Work>
    </rdf:RDF>
  </metadata>
  <g
     inkscape:label="Layer 1"
     inkscape:groupmode="layer"
     id="layer1">
    <rect
       style="opacity:1;fill:#800000;fill-opacity:1;stroke:#ffffff;stroke-width:10;stroke-miterlimit:4;stroke-dasharray:none;stroke-dashoffset:0;stroke-opacity:1"
       id="rect5046"
       width="433"
       height="435"
       x="32"
       y="340.36221"
       ry="30.085501" />
    <rect
       style="opacity:1;fill:#ffffff;fill-opacity:1;stroke:none;stroke-width:10;stroke-miterlimit:4;stroke-dasharray:none;stroke-dashoffset:0;stroke-opacity:1"
       id="rect5044"
       width="72.235023"
       height="47.424225"
       x="184.61852"
       y="203.20499"
       ry="7.1038761"
       inkscape:export-xdpi="58.830654"
       inkscape:export-ydpi="58.830654" />
    <path
       style="color:#000000;font-style:normal;font-variant:normal;font-weight:normal;font-stretch:normal;font-size:medium;line-height:normal;font-family:sans-serif;text-indent:0;text-align:start;text-decoration:none;text-decoration-line:none;text-decoration-style:solid;text-decoration-color:#000000;letter-spacing:normal;word-spacing:normal;text-transform:none;direction:ltr;block-progression:tb;writing-mode:lr-tb;baseline-shift:baseline;text-anchor:start;white-space:normal;clip-rule:nonzero;display:inline;overflow:visible;visibility:visible;opacity:1;isolation:auto;mix-blend-mode:normal;color-interpolation:sRGB;color-interpolation-filters:linearRGB;solid-color:#000000;solid-opacity:1;fill:#000000;fill-opacity:1;fill-rule:nonzero;stroke:none;stroke-width:10;stroke-linecap:butt;stroke-linejoin:miter;stroke-miterlimit:4;stroke-dasharray:none;stroke-dashoffset:0;stroke-opacity:1;color-rendering:auto;image-rendering:auto;shape-rendering:auto;text-rendering:auto;enable-background:accumulate"
       d="m 248.10307,205.51308 c -18.46009,0.0423 -36.92315,-0.0214 -55.38288,0.0339 -3.23804,0.25165 -5.82168,3.40263 -5.44096,6.56215 0.0389,10.43358 -0.082,20.87214 0.0626,31.30264 0.40481,3.05656 3.54349,5.39261 6.64799,5.04094 18.35879,-0.0388 36.72249,0.0803 55.07821,-0.0618 3.11329,-0.39734 5.49281,-3.47893 5.13421,-6.52661 -0.0395,-10.43191 0.0821,-20.86879 -0.0628,-31.29762 -0.38434,-2.83483 -3.13011,-5.11735 -6.0364,-5.05371 z m -54.33014,2.87062 c 11.98622,0.0957 23.98349,0.0134 35.97394,0.0409 6.34034,0.0319 12.68908,-0.0618 19.02449,0.0434 1.72602,0.3187 2.80133,2.17895 2.47847,3.8057 -0.0473,10.31818 0.0976,20.64465 -0.0751,30.95761 -0.37332,1.79048 -2.47132,2.65309 -4.17378,2.32293 -18.08355,-0.0278 -36.17147,0.0569 -54.25229,-0.0436 -1.8225,-0.27807 -2.8507,-2.27876 -2.51701,-3.96673 0.0465,-10.26365 -0.0975,-20.53567 0.0748,-30.79406 0.31252,-1.51184 1.95839,-2.47327 3.46639,-2.36614 z"
       id="rect4135"
       inkscape:connector-curvature="0"
       inkscape:export-xdpi="58.830654"
       inkscape:export-ydpi="58.830654" />
    <path
       style="color:#000000;font-style:normal;font-variant:normal;font-weight:normal;font-stretch:normal;font-size:medium;line-height:normal;font-family:sans-serif;text-indent:0;text-align:start;text-decoration:none;text-decoration-line:none;text-decoration-style:solid;text-decoration-color:#000000;letter-spacing:normal;word-spacing:normal;text-transform:none;direction:ltr;block-progression:tb;writing-mode:lr-tb;baseline-shift:baseline;text-anchor:start;white-space:normal;clip-rule:nonzero;display:inline;overflow:visible;visibility:visible;opacity:1;isolation:auto;mix-blend-mode:normal;color-interpolation:sRGB;color-interpolation-filters:linearRGB;solid-color:#000000;solid-opacity:1;fill:#000000;fill-opacity:1;fill-rule:evenodd;stroke:none;stroke-width:10;stroke-linecap:butt;stroke-linejoin:miter;stroke-miterlimit:4;stroke-dasharray:none;stroke-dashoffset:0;stroke-opacity:1;color-rendering:auto;image-rendering:auto;shape-rendering:auto;text-rendering:auto;enable-background:accumulate"
       d="m 210.87232,228.75708 c -8.00566,4.21829 -15.7865,8.83318 -23.51543,13.51777 0.85341,0.51474 0.78424,2.14101 1.97219,2.1403 2.15258,-1.12032 4.18259,-2.51254 6.30177,-3.71184 5.91675,-3.51516 11.88572,-6.93137 18.00209,-10.1 -0.85888,-0.64671 -1.71989,-1.29071 -2.57256,-1.9453 l -0.14454,0.0761 -0.0435,0.0229 z"
       id="path4993"
       inkscape:connector-curvature="0"
       inkscape:export-xdpi="58.830654"
       inkscape:export-ydpi="58.830654" />
    <path
       style="color:#000000;font-style:normal;font-variant:normal;font-weight:normal;font-stretch:normal;font-size:medium;line-height:normal;font-family:sans-serif;text-indent:0;text-align:start;text-decoration:none;text-decoration-line:none;text-decoration-style:solid;text-decoration-color:#000000;letter-spacing:normal;word-spacing:normal;text-transform:none;direction:ltr;block-progression:tb;writing-mode:lr-tb;baseline-shift:baseline;text-anchor:start;white-space:normal;clip-rule:nonzero;display:inline;overflow:visible;visibility:visible;opacity:1;isolation:auto;mix-blend-mode:normal;color-interpolation:sRGB;color-interpolation-filters:linearRGB;solid-color:#000000;solid-opacity:1;fill:#000000;fill-opacity:1;fill-rule:evenodd;stroke:none;stroke-width:10;stroke-linecap:butt;stroke-linejoin:miter;stroke-miterlimit:4;stroke-dasharray:none;stroke-dashoffset:0;stroke-opacity:1;color-rendering:auto;image-rendering:auto;shape-rendering:auto;text-rendering:auto;enable-background:accumulate"
       d="m 213.92096,229.01813 c -0.73622,0.58047 -2.13665,0.59848 -2.34831,1.66601 2.68152,1.85808 5.21895,4.12763 8.39303,5.13392 2.20859,0.33491 3.97771,-1.37433 5.73447,-2.38424 1.43818,-0.96444 2.82686,-1.99725 4.213,-3.0318 -0.966,-0.49277 -1.93042,-0.98849 -2.90095,-1.47258 -2.09218,1.41453 -4.02674,3.15647 -6.45576,4.00635 -2.41135,-0.88556 -4.37863,-2.57049 -6.45704,-4.00761 l -0.14592,0.0735 -0.0325,0.0164 z"
       id="path4991"
       inkscape:connector-curvature="0"
       inkscape:export-xdpi="58.830654"
       inkscape:export-ydpi="58.830654" />
    <path
       style="color:#000000;font-style:normal;font-variant:normal;font-weight:normal;font-stretch:normal;font-size:medium;line-height:normal;font-family:sans-serif;text-indent:0;text-align:start;text-decoration:none;text-decoration-line:none;text-decoration-style:solid;text-decoration-color:#000000;letter-spacing:normal;word-spacing:normal;text-transform:none;direction:ltr;block-progression:tb;writing-mode:lr-tb;baseline-shift:baseline;text-anchor:start;white-space:normal;clip-rule:nonzero;display:inline;overflow:visible;visibility:visible;opacity:1;isolation:auto;mix-blend-mode:normal;color-interpolation:sRGB;color-interpolation-filters:linearRGB;solid-color:#000000;solid-opacity:1;fill:#000000;fill-opacity:1;fill-rule:evenodd;stroke:none;stroke-width:10;stroke-linecap:butt;stroke-linejoin:miter;stroke-miterlimit:4;stroke-dasharray:none;stroke-dashoffset:0;stroke-opacity:1;color-rendering:auto;image-rendering:auto;shape-rendering:auto;text-rendering:auto;enable-background:accumulate"
       d="m 229.89072,228.78633 c -0.54565,0.68076 -1.73997,0.83838 -1.95009,1.7503 0.1833,0.8158 1.39425,0.82431 1.94783,1.3246 7.68848,4.05375 15.18789,8.43603 22.65525,12.86342 0.0536,-1.00109 1.6318,-1.66761 1.04345,-2.71746 -7.6924,-4.67613 -15.54635,-9.14558 -23.52824,-13.34856 l -0.12976,0.0985 -0.0384,0.0292 z"
       id="path4989"
       inkscape:connector-curvature="0"
       inkscape:export-xdpi="58.830654"
       inkscape:export-ydpi="58.830654" />
    <path
       style="color:#000000;font-style:normal;font-variant:normal;font-weight:normal;font-stretch:normal;font-size:medium;line-height:normal;font-family:sans-serif;text-indent:0;text-align:start;text-decoration:none;text-decoration-line:none;text-decoration-style:solid;text-decoration-color:#000000;letter-spacing:normal;word-spacing:normal;text-transform:none;direction:ltr;block-progression:tb;writing-mode:lr-tb;baseline-shift:baseline;text-anchor:start;white-space:normal;clip-rule:nonzero;display:inline;overflow:visible;visibility:visible;opacity:1;isolation:auto;mix-blend-mode:normal;color-interpolation:sRGB;color-interpolation-filters:linearRGB;solid-color:#000000;solid-opacity:1;fill:#000000;fill-opacity:1;fill-rule:evenodd;stroke:none;stroke-width:10;stroke-linecap:butt;stroke-linejoin:miter;stroke-miterlimit:4;stroke-dasharray:none;stroke-dashoffset:0;stroke-opacity:1;color-rendering:auto;image-rendering:auto;shape-rendering:auto;text-rendering:auto;enable-background:accumulate"
       d="m 252.10961,208.38214 c -0.93545,0.2224 -1.47074,1.24559 -2.26238,1.74537 -7.34944,6.38353 -14.77384,12.69299 -22.53836,18.58333 0.96329,0.48981 1.92619,0.98037 2.8862,1.47636 8.26329,-6.35138 16.16866,-13.13479 24.00847,-19.97896 -0.87288,-0.40124 -1.0842,-1.6822 -2.09393,-1.8261 z"
       id="path4987"
       inkscape:connector-curvature="0"
       inkscape:export-xdpi="58.830654"
       inkscape:export-ydpi="58.830654" />
    <path
       style="color:#000000;font-style:normal;font-variant:normal;font-weight:normal;font-stretch:normal;font-size:medium;line-height:normal;font-family:sans-serif;text-indent:0;text-align:start;text-decoration:none;text-decoration-line:none;text-decoration-style:solid;text-decoration-color:#000000;letter-spacing:normal;word-spacing:normal;text-transform:none;direction:ltr;block-progression:tb;writing-mode:lr-tb;baseline-shift:baseline;text-anchor:start;white-space:normal;clip-rule:nonzero;display:inline;overflow:visible;visibility:visible;opacity:1;isolation:auto;mix-blend-mode:normal;color-interpolation:sRGB;color-interpolation-filters:linearRGB;solid-color:#000000;solid-opacity:1;fill:#000000;fill-opacity:1;fill-rule:evenodd;stroke:none;stroke-width:10;stroke-linecap:butt;stroke-linejoin:miter;stroke-miterlimit:4;stroke-dasharray:none;stroke-dashoffset:0;stroke-opacity:1;color-rendering:auto;image-rendering:auto;shape-rendering:auto;text-rendering:auto;enable-background:accumulate"
       d="m 189.06254,208.31954 c -0.39803,0.74406 -1.6325,1.11742 -1.49132,2.08087 0.50724,0.77828 1.44883,1.22451 2.07744,1.92163 6.92802,6.13885 13.94034,12.19613 21.27428,17.86674 0.95699,-0.49726 1.91737,-0.98817 2.8782,-1.47825 -8.50157,-6.48467 -16.5465,-13.526 -24.51819,-20.62688 l -0.11088,0.11867 -0.10953,0.11722 z"
       id="path4137"
       inkscape:connector-curvature="0"
       inkscape:export-xdpi="58.830654"
       inkscape:export-ydpi="58.830654" />
    <path
       style="color:#000000;font-style:normal;font-variant:normal;font-weight:normal;font-stretch:normal;font-size:medium;line-height:normal;font-family:sans-serif;text-indent:0;text-align:start;text-decoration:none;text-decoration-line:none;text-decoration-style:solid;text-decoration-color:#000000;letter-spacing:normal;word-spacing:normal;text-transform:none;direction:ltr;block-progression:tb;writing-mode:lr-tb;baseline-shift:baseline;text-anchor:start;white-space:normal;clip-rule:nonzero;display:inline;overflow:visible;visibility:visible;opacity:1;isolation:auto;mix-blend-mode:normal;color-interpolation:sRGB;color-interpolation-filters:linearRGB;solid-color:#000000;solid-opacity:1;fill:#000000;fill-opacity:1;fill-rule:evenodd;stroke:none;stroke-width:10;stroke-linecap:butt;stroke-linejoin:miter;stroke-miterlimit:4;stroke-dasharray:none;stroke-dashoffset:0;stroke-opacity:1;color-rendering:auto;image-rendering:auto;shape-rendering:auto;text-rendering:auto;enable-background:accumulate"
       d="m 212.47544,227.93587 c -0.70381,0.54104 -1.89304,0.58742 -2.27397,1.4622 0.12325,0.66494 1.20866,0.99646 1.70287,1.52854 0.60631,0.73921 1.3682,-0.31522 2.05721,-0.47997 1.23081,-0.38601 1.50509,-0.85333 0.23378,-1.45301 -0.56499,-0.26745 -1.1353,-1.15958 -1.71989,-1.05776 z m 15.81216,0.0311 c -0.55096,0.67902 -1.74403,0.83739 -1.969,1.74558 0.11022,0.67347 1.0719,0.65775 1.49485,1.10428 0.54817,0.36667 1.30181,0.40879 1.72775,-0.16197 0.5271,-0.41259 1.43789,-0.74243 1.38399,-1.54556 -0.82194,-0.42596 -1.64643,-0.84707 -2.47197,-1.26626 l -0.13046,0.0976 -0.0352,0.0263 z"
       id="path4137-6"
       inkscape:connector-curvature="0"
       inkscape:export-xdpi="58.830654"
       inkscape:export-ydpi="58.830654" />
    <rect
       style="fill:#000000;fill-opacity:1;fill-rule:evenodd;stroke:#ffffff;stroke-width:4.375;stroke-linecap:butt;stroke-linejoin:miter;stroke-miterlimit:4;stroke-dasharray:none;stroke-opacity:1"
       id="rect3303"
       width="45"
       height="52.5"
       x="107.5"
       y="197.11221"
       ry="6.1471014" />
    <rect
       style="fill:#ffffff;fill-opacity:1;fill-rule:evenodd;stroke:none;stroke-width:1px;stroke-linecap:butt;stroke-linejoin:miter;stroke-opacity:1"
       id="rect3314"
       width="32.625343"
       height="40"
       x="113.75"
       y="203.36221"
       ry="2.5661995" />
    <rect
       style="fill:#000000;fill-opacity:1;fill-rule:evenodd;stroke:none;stroke-width:1px;stroke-linecap:butt;stroke-linejoin:miter;stroke-opacity:1"
       id="rect5064"
       width="25"
       height="10.027713"
       x="117.5"
       y="207.08449"
       ry="1.2732096"
       rx="1.2732096" />
    <rect
       style="fill:#000000;fill-opacity:1;fill-rule:evenodd;stroke:none;stroke-width:1px;stroke-linecap:butt;stroke-linejoin:miter;stroke-opacity:1"
       id="rect5943"
       width="6.25"
       height="6.25"
       x="117.5"
       y="220.86221"
       ry="1.1123703"
       rx="1.1123703"
       inkscape:tile-w="6.25"
       inkscape:tile-h="7.5"
       inkscape:tile-cx="20.625"
       inkscape:tile-cy="30" />
    <use
       x="0"
       y="0"
       inkscape:tiled-clone-of="#rect5943"
       xlink:href="#rect5943"
       transform="translate(-8.0200451e-8,10.499998)"
       id="use7163"
       width="60"
       height="60" />
    <use
       x="0"
       y="0"
       inkscape:tiled-clone-of="#rect5943"
       xlink:href="#rect5943"
       transform="translate(9.3749995,-1.8042212e-6)"
       id="use7165"
       width="60"
       height="60" />
    <use
       x="0"
       y="0"
       inkscape:tiled-clone-of="#rect5943"
       xlink:href="#rect5943"
       transform="translate(9.3749995,10.499998)"
       id="use7167"
       width="60"
       height="60" />
    <use
       x="0"
       y="0"
       inkscape:tiled-clone-of="#rect5943"
       xlink:href="#rect5943"
       transform="translate(18.75,-1.8042212e-6)"
       id="use7169"
       width="60"
       height="60" />
    <use
       x="0"
       y="0"
       inkscape:tiled-clone-of="#rect5943"
       xlink:href="#rect5943"
       transform="translate(18.75,10.499998)"
       id="use7171"
       width="60"
       height="60" />
    <g
       id="g5254">
      <rect
         ry="0"
         y="198.17722"
         x="321.02649"
         height="11.435029"
         width="11.892136"
         id="rect5150"
         style="opacity:1;fill:#ffff00;fill-opacity:1;stroke:#000000;stroke-width:1;stroke-miterlimit:4;stroke-dasharray:none;stroke-dashoffset:0;stroke-opacity:1" />
      <rect
         ry="0"
         y="209.5822"
         x="320.99142"
         height="11.435029"
         width="11.892136"
         id="rect5150-5"
         style="opacity:1;fill:#ffff00;fill-opacity:1;stroke:#000000;stroke-width:1;stroke-miterlimit:4;stroke-dasharray:none;stroke-dashoffset:0;stroke-opacity:1" />
      <rect
         ry="0"
         y="209.5614"
         x="332.95239"
         height="11.435029"
         width="11.892136"
         id="rect5150-3"
         style="opacity:1;fill:#ffff00;fill-opacity:1;stroke:#000000;stroke-width:1;stroke-miterlimit:4;stroke-dasharray:none;stroke-dashoffset:0;stroke-opacity:1" />
      <rect
         ry="0"
         y="220.96638"
         x="332.91733"
         height="11.435029"
         width="11.892136"
         id="rect5150-5-5"
         style="opacity:1;fill:#ffff00;fill-opacity:1;stroke:#000000;stroke-width:1;stroke-miterlimit:4;stroke-dasharray:none;stroke-dashoffset:0;stroke-opacity:1" />
    </g>
    <g
       id="g5248">
      <rect
         ry="0"
         y="174.56966"
         x="333.56931"
         height="11.435029"
         width="11.892136"
         id="rect5150-6"
         style="opacity:1;fill:#00ffff;fill-opacity:1;stroke:#000000;stroke-width:1;stroke-miterlimit:4;stroke-dasharray:none;stroke-dashoffset:0;stroke-opacity:1" />
      <rect
         ry="0"
         y="185.97464"
         x="333.53424"
         height="11.435029"
         width="11.892136"
         id="rect5150-5-2"
         style="opacity:1;fill:#00ffff;fill-opacity:1;stroke:#000000;stroke-width:1;stroke-miterlimit:4;stroke-dasharray:none;stroke-dashoffset:0;stroke-opacity:1" />
      <rect
         ry="0"
         y="174.57884"
         x="345.49521"
         height="11.435029"
         width="11.892136"
         id="rect5150-3-9"
         style="opacity:1;fill:#00ffff;fill-opacity:1;stroke:#000000;stroke-width:1;stroke-miterlimit:4;stroke-dasharray:none;stroke-dashoffset:0;stroke-opacity:1" />
      <rect
         ry="0"
         y="185.98383"
         x="345.46014"
         height="11.435029"
         width="11.892136"
         id="rect5150-5-5-1"
         style="opacity:1;fill:#00ffff;fill-opacity:1;stroke:#000000;stroke-width:1;stroke-miterlimit:4;stroke-dasharray:none;stroke-dashoffset:0;stroke-opacity:1" />
    </g>
    <g
       id="g5260">
      <rect
         ry="0"
         y="186.07333"
         x="357.89621"
         height="11.435029"
         width="11.892136"
         id="rect5150-2"
         style="opacity:1;fill:#d40000;fill-opacity:1;stroke:#000000;stroke-width:1;stroke-miterlimit:4;stroke-dasharray:none;stroke-dashoffset:0;stroke-opacity:1" />
      <rect
         ry="0"
         y="197.47832"
         x="357.86115"
         height="11.435029"
         width="11.892136"
         id="rect5150-5-7"
         style="opacity:1;fill:#d40000;fill-opacity:1;stroke:#000000;stroke-width:1;stroke-miterlimit:4;stroke-dasharray:none;stroke-dashoffset:0;stroke-opacity:1" />
      <rect
         ry="0"
         y="208.91901"
         x="357.87357"
         height="11.435029"
         width="11.892136"
         id="rect5150-3-0"
         style="opacity:1;fill:#d40000;fill-opacity:1;stroke:#000000;stroke-width:1;stroke-miterlimit:4;stroke-dasharray:none;stroke-dashoffset:0;stroke-opacity:1" />
      <rect
         ry="0"
         y="220.32399"
         x="357.8385"
         height="11.435029"
         width="11.892136"
         id="rect5150-5-5-9"
         style="opacity:1;fill:#d40000;fill-opacity:1;stroke:#000000;stroke-width:1;stroke-miterlimit:4;stroke-dasharray:none;stroke-dashoffset:0;stroke-opacity:1" />
    </g>
    <rect
       style="fill:#000000;fill-opacity:1;stroke:none;stroke-width:1.75;stroke-miterlimit:4;stroke-dasharray:none;stroke-opacity:1"
       id="rect4149"
       width="6.530827"
       height="65.667267"
       x="385.27859"
       y="171.65816" />
    <rect
       style="fill:#000000;fill-opacity:1;stroke:none;stroke-width:1.75;stroke-miterlimit:4;stroke-dasharray:none;stroke-opacity:1"
       id="rect4149-3"
       width="6.530827"
       height="65.667267"
       x="126.14706"
       y="386.73254"
       transform="matrix(0.70587157,-0.70833984,0.70833984,0.70587157,0,0)" />
    <rect
       style="fill:#000000;fill-opacity:1;stroke:none;stroke-width:1.75;stroke-miterlimit:4;stroke-dasharray:none;stroke-opacity:1"
       id="rect4149-6"
       width="6.530827"
       height="65.667267"
       x="415.84644"
       y="-163.70992"
       transform="matrix(0.70587157,0.70833984,-0.70833984,0.70587157,0,0)" />
    <rect
       style="fill:#000000;fill-opacity:1;stroke:none;stroke-width:1.75;stroke-miterlimit:4;stroke-dasharray:none;stroke-opacity:1"
       id="rect4149-7"
       width="6.530827"
       height="65.667267"
       x="201.22638"
       y="-421.37766"
       transform="matrix(0,1,-1,0,0,0)" />
    <circle
       style="fill:#000000;fill-opacity:1;stroke:none;stroke-width:1.75;stroke-miterlimit:4;stroke-dasharray:none;stroke-opacity:1"
       id="path4144"
       cx="388.54401"
       cy="204.49179"
       r="26.51947" />
    <path
       style="color:#000000;font-style:normal;font-variant:normal;font-weight:normal;font-stretch:normal;font-size:medium;line-height:normal;font-family:sans-serif;text-indent:0;text-align:start;text-decoration:none;text-decoration-line:none;text-decoration-style:solid;text-decoration-color:#000000;letter-spacing:normal;word-spacing:normal;text-transform:none;direction:ltr;block-progression:tb;writing-mode:lr-tb;baseline-shift:baseline;text-anchor:start;white-space:normal;clip-rule:nonzero;display:inline;overflow:visible;visibility:visible;opacity:1;isolation:auto;mix-blend-mode:normal;color-interpolation:sRGB;color-interpolation-filters:linearRGB;solid-color:#000000;solid-opacity:1;fill:#ffffff;fill-opacity:1;fill-rule:nonzero;stroke:none;stroke-width:30.00000381;stroke-linecap:butt;stroke-linejoin:miter;stroke-miterlimit:4;stroke-dasharray:none;stroke-dashoffset:0;stroke-opacity:1;color-rendering:auto;image-rendering:auto;shape-rendering:auto;text-rendering:auto;enable-background:accumulate"
       d="m 389.13826,183.95074 c -11.63366,0.4677 -20.88653,10.14349 -20.88653,21.80573 0,0.49678 0.017,0.99375 0.0507,1.48937 l 8.18917,-0.55844 c -0.0212,-0.30976 -0.0315,-0.62044 -0.0315,-0.93093 0,-7.35832 5.70664,-13.31074 13.00786,-13.60426 l -0.32971,-8.20147 z"
       id="path4209"
       inkscape:connector-curvature="0" />
    <rect
       style="fill:#ffffff;fill-opacity:1;fill-rule:evenodd;stroke:#ffffff;stroke-width:4.375;stroke-linecap:butt;stroke-linejoin:miter;stroke-miterlimit:4;stroke-dasharray:none;stroke-opacity:1"
       id="rect3303-3"
       width="45"
       height="52.5"
       x="145.0843"
       y="80.710442"
       ry="6.1471014" />
    <rect
       style="fill:#000000;fill-opacity:1;fill-rule:evenodd;stroke:none;stroke-width:1px;stroke-linecap:butt;stroke-linejoin:miter;stroke-opacity:1"
       id="rect3314-6"
       width="32.625343"
       height="40"
       x="151.3343"
       y="86.960442"
       ry="2.5661995" />
    <rect
       style="fill:#ffffff;fill-opacity:1;fill-rule:evenodd;stroke:none;stroke-width:1px;stroke-linecap:butt;stroke-linejoin:miter;stroke-opacity:1"
       id="rect5064-7"
       width="25"
       height="10.027713"
       x="155.0843"
       y="90.682716"
       ry="1.2732096"
       rx="1.2732096" />
    <rect
       style="fill:#ffffff;fill-opacity:1;fill-rule:evenodd;stroke:none;stroke-width:1px;stroke-linecap:butt;stroke-linejoin:miter;stroke-opacity:1"
       id="rect5943-5"
       width="6.25"
       height="6.25"
       x="155.0843"
       y="104.46044"
       ry="1.1123703"
       rx="1.1123703"
       inkscape:tile-w="6.25"
       inkscape:tile-h="7.5"
       inkscape:tile-cx="20.625"
       inkscape:tile-cy="30" />
    <use
       x="0"
       y="0"
       inkscape:tiled-clone-of="#rect5943-5"
       xlink:href="#rect5943-5"
       transform="translate(-2.903e-6,10.499997)"
       id="use7163-3"
       width="60"
       height="60"
       style="fill:#ffffff" />
    <use
       x="0"
       y="0"
       inkscape:tiled-clone-of="#rect5943-5"
       xlink:href="#rect5943-5"
       transform="translate(9.3749971,-3.4725905e-6)"
       id="use7165-5"
       width="60"
       height="60"
       style="fill:#ffffff" />
    <use
       x="0"
       y="0"
       inkscape:tiled-clone-of="#rect5943-5"
       xlink:href="#rect5943-5"
       transform="translate(9.3749971,10.499997)"
       id="use7167-6"
       width="60"
       height="60"
       style="fill:#ffffff" />
    <use
       x="0"
       y="0"
       inkscape:tiled-clone-of="#rect5943-5"
       xlink:href="#rect5943-5"
       transform="translate(18.749997,-3.4725905e-6)"
       id="use7169-2"
       width="60"
       height="60"
       style="fill:#ffffff" />
    <use
       x="0"
       y="0"
       inkscape:tiled-clone-of="#rect5943-5"
       xlink:href="#rect5943-5"
       transform="translate(18.749997,10.499997)"
       id="use7171-9"
       width="60"
       height="60"
       style="fill:#ffffff" />
    <rect
       style="fill:#ff0000;fill-opacity:1;fill-rule:evenodd;stroke:#999999;stroke-width:4.375;stroke-linecap:butt;stroke-linejoin:miter;stroke-miterlimit:4;stroke-dasharray:none;stroke-opacity:1"
       id="rect3303-2"
       width="45"
       height="52.5"
       x="58.5"
       y="92.362206"
       ry="6.1471014"
       inkscape:export-xdpi="58.54945"
       inkscape:export-ydpi="58.54945" />
    <rect
       style="fill:#000000;fill-opacity:1;fill-rule:evenodd;stroke:none;stroke-width:1px;stroke-linecap:butt;stroke-linejoin:miter;stroke-opacity:1"
       id="rect3314-61"
       width="32.625343"
       height="40"
       x="64.75"
       y="98.612206"
       ry="2.5661995"
       inkscape:export-xdpi="58.54945"
       inkscape:export-ydpi="58.54945" />
    <rect
       style="fill:#ff0000;fill-opacity:1;fill-rule:evenodd;stroke:none;stroke-width:1px;stroke-linecap:butt;stroke-linejoin:miter;stroke-opacity:1"
       id="rect5064-8"
       width="25"
       height="10.027713"
       x="68.5"
       y="102.33448"
       ry="1.2732096"
       rx="1.2732096"
       inkscape:export-xdpi="58.54945"
       inkscape:export-ydpi="58.54945" />
    <rect
       style="fill:#ff0000;fill-opacity:1;fill-rule:evenodd;stroke:none;stroke-width:1px;stroke-linecap:butt;stroke-linejoin:miter;stroke-opacity:1"
       id="rect5943-7"
       width="6.25"
       height="6.25"
       x="68.5"
       y="116.11221"
       ry="1.1123703"
       rx="1.1123703"
       inkscape:tile-w="6.25"
       inkscape:tile-h="7.5"
       inkscape:tile-cx="20.625"
       inkscape:tile-cy="30"
       inkscape:export-xdpi="58.54945"
       inkscape:export-ydpi="58.54945" />
    <use
       x="0"
       y="0"
       inkscape:tiled-clone-of="#rect5943-7"
       xlink:href="#rect5943-7"
       transform="translate(4.2738563e-8,10.499997)"
       id="use7163-9"
       width="60"
       height="60"
       style="fill:#ff0000"
       inkscape:export-xdpi="58.54945"
       inkscape:export-ydpi="58.54945" />
    <use
       x="0"
       y="0"
       inkscape:tiled-clone-of="#rect5943-7"
       xlink:href="#rect5943-7"
       transform="translate(9.375,-2.7682711e-6)"
       id="use7165-2"
       width="60"
       height="60"
       style="fill:#ff0000"
       inkscape:export-xdpi="58.54945"
       inkscape:export-ydpi="58.54945" />
    <use
       x="0"
       y="0"
       inkscape:tiled-clone-of="#rect5943-7"
       xlink:href="#rect5943-7"
       transform="translate(9.375,10.499997)"
       id="use7167-0"
       width="60"
       height="60"
       style="fill:#ff0000"
       inkscape:export-xdpi="58.54945"
       inkscape:export-ydpi="58.54945" />
    <use
       x="0"
       y="0"
       inkscape:tiled-clone-of="#rect5943-7"
       xlink:href="#rect5943-7"
       transform="translate(18.75,-2.7682711e-6)"
       id="use7169-23"
       width="60"
       height="60"
       style="fill:#ff0000"
       inkscape:export-xdpi="58.54945"
       inkscape:export-ydpi="58.54945" />
    <use
       x="0"
       y="0"
       inkscape:tiled-clone-of="#rect5943-7"
       xlink:href="#rect5943-7"
       transform="translate(18.75,10.499997)"
       id="use7171-7"
       width="60"
       height="60"
       style="fill:#ff0000"
       inkscape:export-xdpi="58.54945"
       inkscape:export-ydpi="58.54945" />
    <path
       style="fill:#000000"
       d="m 566.50261,191.206 c -4.153,-0.0767 -8.40428,2.04892 -10.26217,5.875 -2.23939,4.01134 -1.59438,8.75129 -1.65926,13.14032 0.0421,13.10824 -0.0825,26.22159 0.0593,39.32679 0.4685,5.71475 2.93707,11.90184 8.28547,14.65028 4.5245,2.22013 10.17245,2.19544 14.65123,-0.13234 5.40695,-2.95162 7.76207,-9.37576 8.08295,-15.23713 -0.0104,-6.80521 0.0824,-29.29889 -0.0419,-36.09681 -0.52171,-2.08298 -4.28403,-1.78316 -4.25718,0.45026 -0.0538,7.35637 0.0955,30.46628 -0.0499,37.78056 -0.27587,4.17636 -2.63211,8.65868 -6.89937,9.90846 -4.30021,1.36183 -9.72066,0.69024 -12.5436,-3.19277 -2.89441,-3.82248 -3.17964,-8.81407 -2.97518,-13.39465 0.0361,-13.84729 -0.0716,-27.70046 0.0527,-41.54416 0.25218,-3.34478 2.61642,-6.67132 6.11143,-7.08588 3.35345,-0.66465 7.33989,0.64331 8.70465,4.00333 1.61179,3.54768 0.6396,7.54839 0.90428,11.29926 -0.033,12.675 0.0654,25.35604 -0.048,38.02735 -0.11801,2.33673 -2.10487,4.50775 -4.55956,4.20491 -2.97463,0.0794 -4.74276,-3.10785 -4.47053,-5.77562 -0.0583,-6.22165 0.11116,-36.82079 -0.0749,-43.0301 -0.60222,-2.01182 -4.26198,-1.67376 -4.23693,0.52467 0.0689,6.93975 -0.12663,38.24715 0.0761,45.18042 0.2813,3.42995 2.65528,6.74893 6.14649,7.44117 3.53431,0.91783 7.88186,-0.0174 9.81804,-3.36091 2.50975,-3.959 1.43971,-8.85085 1.66114,-13.25147 -0.0332,-12.7562 0.0652,-25.51687 -0.0471,-38.27038 -0.35049,-4.54858 -2.98288,-9.24956 -7.51495,-10.71572 -1.57338,-0.55042 -3.25194,-0.75067 -4.91326,-0.72484 z"
       id="path5-3"
       inkscape:connector-curvature="0"
       sodipodi:nodetypes="ccccccccccccccccccccccccccccc"
       inkscape:export-xdpi="58.54945"
       inkscape:export-ydpi="58.54945" />
  </g>
</svg>
