<?xml version="1.0" encoding="UTF-8" standalone="no"?>
<!-- Created with Inkscape (http://www.inkscape.org/) -->

<svg
   xmlns:dc="http://purl.org/dc/elements/1.1/"
   xmlns:cc="http://creativecommons.org/ns#"
   xmlns:rdf="http://www.w3.org/1999/02/22-rdf-syntax-ns#"
   xmlns:svg="http://www.w3.org/2000/svg"
   xmlns="http://www.w3.org/2000/svg"
   xmlns:sodipodi="http://sodipodi.sourceforge.net/DTD/sodipodi-0.dtd"
   xmlns:inkscape="http://www.inkscape.org/namespaces/inkscape"
   width="210mm"
   height="297mm"
   viewBox="0 0 744.09448819 1052.3622047"
   id="svg9107"
   version="1.1"
   inkscape:version="0.91 r13725"
   sodipodi:docname="lock.svg">
  <defs
     id="defs9109" />
  <sodipodi:namedview
     id="base"
     pagecolor="#ffffff"
     bordercolor="#666666"
     borderopacity="1.0"
     inkscape:pageopacity="0.0"
     inkscape:pageshadow="2"
     inkscape:zoom="0.5"
     inkscape:cx="220.26303"
     inkscape:cy="1015.001"
     inkscape:document-units="px"
     inkscape:current-layer="layer1"
     showgrid="false"
     showguides="false"
     inkscape:window-width="1280"
     inkscape:window-height="999"
     inkscape:window-x="1280"
     inkscape:window-y="0"
     inkscape:window-maximized="1" />
  <metadata
     id="metadata9112">
    <rdf:RDF>
      <cc:Work
         rdf:about="">
        <dc:format>image/svg+xml</dc:format>
        <dc:type
           rdf:resource="http://purl.org/dc/dcmitype/StillImage" />
        <dc:title></dc:title>
      </cc:Work>
    </rdf:RDF>
  </metadata>
  <g
     inkscape:label="Layer 1"
     inkscape:groupmode="layer"
     id="layer1">
    <g
       id="g9755"
       inkscape:export-xdpi="27"
       inkscape:export-ydpi="27">
      <path
         inkscape:connector-curvature="0"
         id="rect9710"
         d="m 143.9852,537.32361 191.85202,0 c 1.97999,0 3.57399,1.6912 3.57399,3.79192 l 0,191.41616 c 0,2.10072 -1.594,3.79193 -3.57399,3.79193 l -191.85202,0 c -1.97999,0 -3.57399,-1.69121 -3.57399,-3.79193 l 0,-191.41616 c 0,-2.10072 1.594,-3.79192 3.57399,-3.79192 z"
         style="color:#000000;clip-rule:nonzero;display:inline;overflow:visible;visibility:visible;opacity:1;isolation:auto;mix-blend-mode:normal;color-interpolation:sRGB;color-interpolation-filters:linearRGB;solid-color:#000000;solid-opacity:1;fill:#b3b3b3;fill-opacity:1;fill-rule:nonzero;stroke:#000000;stroke-width:1;stroke-linecap:butt;stroke-linejoin:miter;stroke-miterlimit:4;stroke-dasharray:none;stroke-dashoffset:0;stroke-opacity:1;color-rendering:auto;image-rendering:auto;shape-rendering:auto;text-rendering:auto;enable-background:accumulate" />
      <path
         inkscape:connector-curvature="0"
         id="rect9710-3"
         d="m 157.35787,551.19702 165.10667,0 c 1.70391,0 3.07566,1.45539 3.07566,3.26321 l 0,164.72677 c 0,1.80782 -1.37175,3.2632 -3.07566,3.2632 l -165.10667,0 c -1.7039,0 -3.07565,-1.45538 -3.07565,-3.2632 l 0,-164.72677 c 0,-1.80782 1.37175,-3.26321 3.07565,-3.26321 z"
         style="color:#000000;clip-rule:nonzero;display:inline;overflow:visible;visibility:visible;opacity:1;isolation:auto;mix-blend-mode:normal;color-interpolation:sRGB;color-interpolation-filters:linearRGB;solid-color:#000000;solid-opacity:1;fill:#ff0000;fill-opacity:1;fill-rule:nonzero;stroke:#000000;stroke-width:1;stroke-linecap:butt;stroke-linejoin:miter;stroke-miterlimit:4;stroke-dasharray:none;stroke-dashoffset:0;stroke-opacity:1;color-rendering:auto;image-rendering:auto;shape-rendering:auto;text-rendering:auto;enable-background:accumulate" />
      <path
         inkscape:connector-curvature="0"
         id="rect9661"
         d="m 240.44212,574.90503 c -16.61758,0 -29.99648,14.19628 -29.99648,31.83043 l 0,15.19443 c -3.34534,1.13171 -6.73032,2.47712 -10.16058,4.06936 -1.86952,0.86777 -3.6835,1.74346 -3.6835,3.90884 l 0,57.684 c 0,2.16538 1.75167,3.21041 3.6835,3.90779 25.28552,9.12788 51.57337,10.17468 79.2523,0 1.92814,-0.70879 3.6835,-1.74241 3.6835,-3.90779 l 0,-57.684 c 0,-2.16538 -1.77447,-3.14407 -3.6835,-3.90884 -3.0145,-1.2076 -6.04672,-2.31905 -9.09973,-3.31782 l 0,-15.94597 c 0,-17.63415 -13.37792,-31.83043 -29.99551,-31.83043 z m -0.10019,8.14914 c 12.29793,0 22.19925,10.51983 22.19925,23.58644 l 0,13.74138 c -14.17488,-3.61581 -28.85831,-4.47402 -44.39751,-0.69004 l 0,-13.05134 c 0,-13.06661 9.90034,-23.58644 22.19826,-23.58644 z m -0.43022,61.53238 a 7.9030437,8.5539801 0 0 1 7.90234,8.55357 7.9030437,8.5539801 0 0 1 -4.82491,7.8698 l 0,8.2075 c 0,1.86666 -1.41564,3.36994 -3.17468,3.36994 -1.75905,0 -3.17567,-1.50328 -3.17567,-3.36994 l 0,-8.30028 a 7.9030437,8.5539801 0 0 1 -4.63042,-7.77702 7.9030437,8.5539801 0 0 1 7.90334,-8.55357 z"
         style="color:#000000;clip-rule:nonzero;display:inline;overflow:visible;visibility:visible;opacity:1;isolation:auto;mix-blend-mode:normal;color-interpolation:sRGB;color-interpolation-filters:linearRGB;solid-color:#000000;solid-opacity:1;fill:#000000;fill-opacity:1;fill-rule:nonzero;stroke:#000000;stroke-width:1;stroke-linecap:butt;stroke-linejoin:miter;stroke-miterlimit:4;stroke-dasharray:none;stroke-dashoffset:0;stroke-opacity:1;color-rendering:auto;image-rendering:auto;shape-rendering:auto;text-rendering:auto;enable-background:accumulate" />
    </g>
    <g
       id="g9750"
       transform="translate(0,0.2928)"
       inkscape:export-xdpi="27"
       inkscape:export-ydpi="27">
      <path
         inkscape:connector-curvature="0"
         id="rect9710-0"
         d="m 343.9709,537.03081 191.85202,0 c 1.97999,0 3.57399,1.6912 3.57399,3.79192 l 0,191.41616 c 0,2.10072 -1.594,3.79193 -3.57399,3.79193 l -191.85202,0 c -1.97999,0 -3.57399,-1.69121 -3.57399,-3.79193 l 0,-191.41616 c 0,-2.10072 1.594,-3.79192 3.57399,-3.79192 z"
         style="color:#000000;clip-rule:nonzero;display:inline;overflow:visible;visibility:visible;opacity:1;isolation:auto;mix-blend-mode:normal;color-interpolation:sRGB;color-interpolation-filters:linearRGB;solid-color:#000000;solid-opacity:1;fill:#b3b3b3;fill-opacity:1;fill-rule:nonzero;stroke:#000000;stroke-width:1;stroke-linecap:butt;stroke-linejoin:miter;stroke-miterlimit:4;stroke-dasharray:none;stroke-dashoffset:0;stroke-opacity:1;color-rendering:auto;image-rendering:auto;shape-rendering:auto;text-rendering:auto;enable-background:accumulate" />
      <path
         inkscape:connector-curvature="0"
         id="rect9710-3-7"
         d="m 357.34357,550.90422 165.10667,0 c 1.70391,0 3.07566,1.45539 3.07566,3.26321 l 0,164.72677 c 0,1.80782 -1.37175,3.2632 -3.07566,3.2632 l -165.10667,0 c -1.7039,0 -3.07565,-1.45538 -3.07565,-3.2632 l 0,-164.72677 c 0,-1.80782 1.37175,-3.26321 3.07565,-3.26321 z"
         style="color:#000000;clip-rule:nonzero;display:inline;overflow:visible;visibility:visible;opacity:1;isolation:auto;mix-blend-mode:normal;color-interpolation:sRGB;color-interpolation-filters:linearRGB;solid-color:#000000;solid-opacity:1;fill:#00ff00;fill-opacity:1;fill-rule:nonzero;stroke:#000000;stroke-width:1;stroke-linecap:butt;stroke-linejoin:miter;stroke-miterlimit:4;stroke-dasharray:none;stroke-dashoffset:0;stroke-opacity:1;color-rendering:auto;image-rendering:auto;shape-rendering:auto;text-rendering:auto;enable-background:accumulate" />
      <path
         inkscape:connector-curvature="0"
         id="rect9661-8"
         d="m 440.42782,574.61223 c -16.61758,0 -29.99648,14.19628 -29.99648,31.83043 l 0,15.19443 c -3.34534,1.13171 -6.73032,2.47712 -10.16058,4.06936 -1.86952,0.86777 -3.6835,1.74346 -3.6835,3.90884 l 0,57.684 c 0,2.16538 1.75167,3.21041 3.6835,3.90779 25.28552,9.12788 51.57337,10.17468 79.2523,0 1.92814,-0.70879 3.6835,-1.74241 3.6835,-3.90779 l 0,-57.684 c 0,-2.16538 -1.77447,-3.14407 -3.6835,-3.90884 -3.0145,-1.2076 -6.04672,-2.31905 -9.09973,-3.31782 l 0,-15.94597 c 0,-17.63415 -13.37792,-31.83043 -29.99551,-31.83043 z m -0.10019,8.14914 c 12.29793,0 22.19925,10.51983 22.19925,23.58644 l 0,13.74138 c -14.17488,-3.61581 -28.85831,-4.47402 -44.39751,-0.69004 l 0,-13.05134 c 0,-13.06661 9.90034,-23.58644 22.19826,-23.58644 z m -0.43022,61.53238 a 7.9030437,8.5539801 0 0 1 7.90234,8.55357 7.9030437,8.5539801 0 0 1 -4.82491,7.8698 l 0,8.2075 c 0,1.86666 -1.41564,3.36994 -3.17468,3.36994 -1.75905,0 -3.17567,-1.50328 -3.17567,-3.36994 l 0,-8.30028 a 7.9030437,8.5539801 0 0 1 -4.63042,-7.77702 7.9030437,8.5539801 0 0 1 7.90334,-8.55357 z"
         style="color:#000000;clip-rule:nonzero;display:inline;overflow:visible;visibility:visible;opacity:1;isolation:auto;mix-blend-mode:normal;color-interpolation:sRGB;color-interpolation-filters:linearRGB;solid-color:#000000;solid-opacity:1;fill:#000000;fill-opacity:1;fill-rule:nonzero;stroke:#000000;stroke-width:1;stroke-linecap:butt;stroke-linejoin:miter;stroke-miterlimit:4;stroke-dasharray:none;stroke-dashoffset:0;stroke-opacity:1;color-rendering:auto;image-rendering:auto;shape-rendering:auto;text-rendering:auto;enable-background:accumulate" />
    </g>
    <rect
       style="color:#000000;clip-rule:nonzero;display:inline;overflow:visible;visibility:visible;opacity:1;isolation:auto;mix-blend-mode:normal;color-interpolation:sRGB;color-interpolation-filters:linearRGB;solid-color:#000000;solid-opacity:1;fill:#ececec;fill-opacity:1;fill-rule:nonzero;stroke:#000000;stroke-width:1.5;stroke-linecap:butt;stroke-linejoin:miter;stroke-miterlimit:4;stroke-dasharray:none;stroke-dashoffset:0;stroke-opacity:1;color-rendering:auto;image-rendering:auto;shape-rendering:auto;text-rendering:auto;enable-background:accumulate"
       id="rect9789"
       width="376.8457"
       height="227.19969"
       x="217"
       y="104.36221"
       ry="22.078966"
       inkscape:export-xdpi="11.805874"
       inkscape:export-ydpi="11.805874" />
    <path
       style="color:#000000;clip-rule:nonzero;display:inline;overflow:visible;visibility:visible;opacity:1;isolation:auto;mix-blend-mode:normal;color-interpolation:sRGB;color-interpolation-filters:linearRGB;solid-color:#000000;solid-opacity:1;fill:#e5c53b;fill-opacity:1;fill-rule:nonzero;stroke:none;stroke-width:1;stroke-linecap:butt;stroke-linejoin:miter;stroke-miterlimit:4;stroke-dasharray:none;stroke-dashoffset:0;stroke-opacity:1;color-rendering:auto;image-rendering:auto;shape-rendering:auto;text-rendering:auto;enable-background:accumulate"
       d="m 316.25913,205.21261 c -12.92764,0.088 -25.84842,1.12181 -29.11569,3.0376 -6.53453,3.83159 -28.84375,43.08011 -28.79214,50.65391 0.0516,7.5738 22.89319,46.514 29.47933,50.25622 6.58614,3.74222 51.73693,3.4339 58.27146,-0.3977 3.47176,-2.03569 11.38256,-14.0673 18.04054,-26.03553 l 12.2937,2.05376 10.15049,-12.01389 17.5359,4.5245 19.05574,-8.35303 17.7259,7.71643 17.2539,-10.73772 20.20897,5.77249 19.60638,-3.9606 16.68397,4.80199 18.29582,-0.0327 16.52369,-20.50344 -16.52369,-10.29551 -158.57122,0 -7.4715,-2.50487 c -7.26423,-13.4411 -17.44638,-29.03973 -21.49578,-31.34058 -3.29306,-1.8711 -16.22812,-2.72944 -29.15577,-2.64138 z m -33.64252,43.0369 a 10.448819,10.636802 0 0 1 10.44882,10.63681 10.448819,10.636802 0 0 1 -10.44882,10.63679 10.448819,10.636802 0 0 1 -10.44882,-10.63679 10.448819,10.636802 0 0 1 10.44882,-10.63681 z"
       id="rect9781"
       inkscape:connector-curvature="0"
       inkscape:export-xdpi="11.805874"
       inkscape:export-ydpi="11.805874" />
    <rect
       style="color:#000000;clip-rule:nonzero;display:inline;overflow:visible;visibility:visible;opacity:1;isolation:auto;mix-blend-mode:normal;color-interpolation:sRGB;color-interpolation-filters:linearRGB;solid-color:#000000;solid-opacity:1;fill:#333333;fill-opacity:1;fill-rule:nonzero;stroke:none;stroke-width:1;stroke-linecap:butt;stroke-linejoin:miter;stroke-miterlimit:4;stroke-dasharray:none;stroke-dashoffset:0;stroke-opacity:1;color-rendering:auto;image-rendering:auto;shape-rendering:auto;text-rendering:auto;enable-background:accumulate"
       id="rect9794"
       width="377.84912"
       height="64.225182"
       x="216.49783"
       y="126.12299"
       ry="0"
       inkscape:export-xdpi="11.805874"
       inkscape:export-ydpi="11.805874" />
  </g>
</svg>
