<?xml version="1.0" encoding="UTF-8" standalone="no"?>
<svg
   xmlns:dc="http://purl.org/dc/elements/1.1/"
   xmlns:cc="http://creativecommons.org/ns#"
   xmlns:rdf="http://www.w3.org/1999/02/22-rdf-syntax-ns#"
   xmlns:svg="http://www.w3.org/2000/svg"
   xmlns="http://www.w3.org/2000/svg"
   xmlns:sodipodi="http://sodipodi.sourceforge.net/DTD/sodipodi-0.dtd"
   xmlns:inkscape="http://www.inkscape.org/namespaces/inkscape"
   version="1.0"
   width="512.71344"
   height="494.64224"
   id="svg2"
   inkscape:version="0.48.4 r9939"
   sodipodi:docname="Skull_and_crossbones.svg">
  <metadata
     id="metadata60">
    <rdf:RDF>
      <cc:Work
         rdf:about="">
        <dc:format>image/svg+xml</dc:format>
        <dc:type
           rdf:resource="http://purl.org/dc/dcmitype/StillImage" />
      </cc:Work>
    </rdf:RDF>
  </metadata>
  <defs
     id="defs58" />
  <sodipodi:namedview
     pagecolor="#ffffff"
     bordercolor="#666666"
     borderopacity="1"
     objecttolerance="10"
     gridtolerance="10"
     guidetolerance="10"
     inkscape:pageopacity="0"
     inkscape:pageshadow="2"
     inkscape:window-width="1440"
     inkscape:window-height="853"
     id="namedview56"
     showgrid="false"
     inkscape:zoom="1.2797127"
     inkscape:cx="256.35673"
     inkscape:cy="247.32113"
     inkscape:window-x="-4"
     inkscape:window-y="-4"
     inkscape:window-maximized="1"
     inkscape:current-layer="svg2"
     fit-margin-top="0"
     fit-margin-left="0"
     fit-margin-right="0"
     fit-margin-bottom="0"
     showborder="false" />
  <path
     d="m 336.56599,413.79126 0,0 63.276,32.886 c 14.986,13.044 11.24,21.924 21.647,29.973 10.268,9.436 16.79,10.962 22.895,2.082 4.857,-10.13 3.886,-20.26 5.413,-31.222 7.076,-6.799 12.905,-10.268 18.733,-17.067 6.383,-7.077 6.104,-14.154 -3.748,-19.149 -8.187,-3.33 -15.957,-4.996 -25.809,-2.082 -6.245,1.943 -12.905,3.053 -21.23,-0.416 l -68.272,-31.638 -194.088,-67.283 c -26.1,-12.756 -47.784,-22.274 -73.59,-36.501 -14.031,-11.186 -9.517,-23.844 -26.4917,-34.146 -7.4571,-3.728 -12.8536,-5.396 -18.8389,4.71 -3.8267,9.028 -3.5323,18.643 -4.121,27.965 -6.6721,7.162 -14.2273,11.382 -19.722,20.311 -7.9476996,12.756 4.1209,16.975 10.5968,18.545 18.4463,4.611 25.1183,-3.729 42.0928,-0.295 33.067,15.405 66.427,31.398 98.316,47.097 z"
     style="fill:#ffffff;stroke:#000000;stroke-width:20;stroke-linejoin:round;stroke-miterlimit:4;stroke-dasharray:none"
     id="path4"
     inkscape:connector-curvature="0" />
  <path
     d="m 350.71999,356.34326 0,0 94.497,-44.542 c 17.9,-7.077 20.398,2.914 36.217,0 12.072,-0.139 22.063,-4.856 21.231,-16.234 -6.106,-9.021 -11.796,-14.71 -22.48,-24.562 0.555,-10.546 -1.388,-20.676 -5.412,-30.805 -4.163,-5.967 -11.656,-8.604 -22.895,2.081 -11.379,8.603 -7.772,20.121 -22.064,32.054 -23.312,11.517 -44.542,21.786 -70.352,34.552 l -196.487,67.855 c -22.757,12.072 -43.432,23.311 -69.519,33.302 -21.231,5.273 -20.398,-7.77 -46.2079,0.833 -7.3544,5.828 -7.2156,14.153 -1.2488,20.397 6.9382,6.8 11.795,11.102 17.9007,17.069 1.943,8.603 2.22,15.957 3.33,26.225 4.163,12.628 13.321,11.934 21.23,5.829 3.469,-4.302 7.771,-8.187 10.407,-12.905 3.608,-6.244 7.632,-13.321 12.489,-19.149 l 62.859,-33.303 z"
     style="fill:#ffffff;stroke:#000000;stroke-width:20;stroke-linejoin:round;stroke-miterlimit:4;stroke-dasharray:none"
     id="path6"
     inkscape:connector-curvature="0" />
  <path
     d="m 129.66099,223.08326 c -19.136,-18.603 -32.51,-50.888 -34.366,-85.752 -2.015,-38.420003 18.218,-76.570102 48.537,-98.319202 33.969,-23.9094 90.766,-30.5219998 126.082,-28.7375 23.921,0.0166 77.206,12.4202 96.015,26.4277 32.994,23.9901 50.688,58.04 51.914,96.850002 1.813,38.983 -14.606,68.675 -34.711,87.206"
     style="fill:#ffffff;stroke:#000000;stroke-width:20;stroke-miterlimit:5;stroke-dasharray:none"
     id="path8"
     inkscape:connector-curvature="0" />
  <path
     d="m 131.563,216.52226 c 0,0 -23.13,70.03 21.44,81.97 l 16.25,93.66 c 17.15,73.72 154.4,73.77 174.6,0 l 16.25,-93.66 c 45.7,-12.2 22.5,-82 22.5,-82 z"
     style="fill:#ffffff;stroke-width:0.2;stroke-miterlimit:4;stroke-dasharray:none"
     id="path10"
     inkscape:connector-curvature="0" />
  <path
     d="m 130.82499,113.78926 c -7.752,6.782 -6.774,16.977 -5.378,32.192 1.102,11.56 8.478,22.939 8.866,33.5 2.712,22.285 -3.876,44.57 -6.977,62.786 -2.132,20.928 3.877,38.95 11.628,45.926 7.751,6.88 17.756,9.729 28.268,12.936 9.551,2.498 14.504,6.842 21.728,12.228 8.606,9.137 10.659,16.694 10.465,25.996"
     style="fill:none;stroke:#000000;stroke-width:12.5"
     id="path12"
     inkscape:connector-curvature="0" />
  <path
     d="m 383.22379,113.20787 c 7.752,6.782 6.774,16.977 5.378,32.192 -1.102,11.56 -8.478,22.939 -8.866,33.5 -2.712,22.285 3.876,44.57 6.977,62.786 2.132,20.928 -3.877,38.95 -11.628,45.926 -7.751,6.88 -21.937,10.575 -28.268,12.936 -7.377,2.581 -14.92,7.258 -21.728,12.644 -8.19,7.888 -10.659,16.278 -10.465,25.58"
     style="fill:none;stroke:#000000;stroke-width:12.5"
     id="path14"
     inkscape:connector-curvature="0" />
  <path
     d="m 152.98399,298.48126 c 6.938,16.79 14.292,33.164 14.986,50.37 -3.191,13.876 -2.22,30.25 1.249,43.294 4.441,17.9 21.786,39.13 39.132,46.207 17.761,6.452 28.862,8.118 48.704,8.118"
     style="fill:none;stroke:#000000;stroke-width:12.5"
     id="path16"
     inkscape:connector-curvature="0" />
  <path
     d="m 360.08579,298.48123 c -6.938,16.79 -14.292,33.164 -14.986,50.37 3.191,13.876 2.22,30.25 -1.249,43.294 -4.441,17.9 -21.994,38.506 -39.34,45.583 -17.345,7.077 -28.445,8.742 -48.288,8.742"
     style="fill:none;stroke:#000000;stroke-width:12.5"
     id="path18"
     inkscape:connector-curvature="0" />
  <path
     d="m 253.05799,247.23326 c -9.696,7.373 -11.853,9.849 -17.211,18.008 -1.939,3.149 -5.56,10.508 -6.55,15.445 -0.989,4.936 -1.73,12.098 -1.727,15.891 0.012,12.853 4.103,20.916 8.571,20.635 3.992,-0.458 9.072,-4.621 16.77,-14.076"
     style="stroke:#000000;stroke-width:1pt"
     id="path20"
     inkscape:connector-curvature="0" />
  <path
     d="m 260.03999,247.44136 c 9.696,7.373 11.853,9.849 17.211,18.008 1.939,3.149 5.56,10.508 6.55,15.445 0.989,4.936 1.73,12.098 1.727,15.891 -0.012,12.853 -4.103,20.916 -8.571,20.635 -3.992,-0.458 -9.072,-4.621 -16.77,-14.076"
     style="stroke:#000000;stroke-width:1pt"
     id="path22"
     inkscape:connector-curvature="0" />
  <path
     d="m 170.63971,191.08323 c 13.46,-2.359 26.503,-3.885 39.963,-5.411 17.623,-4.441 26.504,15.68 21.647,30.805 -6.105,13.46 -14.708,25.255 -24.56,36.633 -7.632,8.603 -16.724,9.995 -25.394,7.076 -6.998,-1.94 -13.461,-6.243 -20.399,-16.234 -3.052,-8.604 -5.688,-13.045 -9.574,-23.729 -3.052,-9.852 1.695,-24.6 18.317,-29.14 z"
     style="stroke:#000000;stroke-width:1pt"
     id="path24"
     inkscape:connector-curvature="0" />
  <path
     d="m 342.72179,191.08323 c -13.46,-2.359 -26.503,-3.885 -39.963,-5.411 -17.623,-4.441 -26.504,15.68 -21.647,30.805 6.105,13.46 14.708,25.255 24.56,36.633 7.632,8.603 16.724,9.995 25.394,7.076 6.998,-1.94 13.461,-6.243 20.399,-16.234 3.052,-8.604 5.688,-13.045 9.574,-23.729 3.052,-9.852 -1.695,-24.6 -18.317,-29.14 z"
     style="stroke:#000000;stroke-width:1pt"
     id="path26"
     inkscape:connector-curvature="0" />
  <path
     d="m 170.39499,306.05226 c 5.69,13.344 7.45,18.415 11.553,31.718 3.496,12.289 4.781,19.794 6.941,37.258"
     style="fill:none;stroke:#000000;stroke-width:7.05000019;stroke-miterlimit:4;stroke-dasharray:none"
     id="path28"
     inkscape:connector-curvature="0" />
  <path
     d="m 342.24929,305.31637 c -5.69,13.344 -7.45,18.415 -11.553,31.718 -3.496,12.289 -4.781,19.794 -6.941,37.258"
     style="fill:none;stroke:#000000;stroke-width:7.05000019;stroke-miterlimit:4;stroke-dasharray:none"
     id="path30"
     inkscape:connector-curvature="0" />
  <path
     d="m 194.67899,337.25426 c 14.718,9.027 40.161,10.419 62.956,10.009 25.394,-0.129 47.133,-1.963 61.409,-10.597"
     style="fill:none;stroke:#000000;stroke-width:5"
     id="path32"
     inkscape:connector-curvature="0" />
  <path
     d="m 199.82999,360.80426 c 16.238,10.204 35.334,13.708 57.326,12.878 22.842,-0.556 40.351,-2.478 56.001,-13.172"
     style="fill:none;stroke:#000000;stroke-width:5"
     id="path34"
     inkscape:connector-curvature="0" />
  <path
     d="m 188.05599,373.16626 c 17.367,20.948 41.608,24.585 69.173,25.315 29.519,1.077 59.166,-10.645 66.819,-25.314"
     style="fill:none;stroke:#000000;stroke-width:6.25"
     id="path36"
     inkscape:connector-curvature="0" />
  <path
     d="m 199.60699,341.77826 -0.416,41.212"
     style="stroke:#000000;stroke-width:7;stroke-miterlimit:4;stroke-dasharray:none"
     id="path38"
     inkscape:connector-curvature="0" />
  <path
     d="m 213.13599,346.14926 -0.208,44.126"
     style="stroke:#000000;stroke-width:7;stroke-miterlimit:4;stroke-dasharray:none"
     id="path40"
     inkscape:connector-curvature="0" />
  <path
     d="m 228.12199,348.02226 -0.416,46.208"
     style="stroke:#000000;stroke-width:7;stroke-miterlimit:4;stroke-dasharray:none"
     id="path42"
     inkscape:connector-curvature="0" />
  <path
     d="m 241.65199,349.06326 -0.209,46.832"
     style="stroke:#000000;stroke-width:7;stroke-miterlimit:4;stroke-dasharray:none"
     id="path44"
     inkscape:connector-curvature="0" />
  <path
     d="m 256.84599,349.47926 0,46.832"
     style="stroke:#000000;stroke-width:7;stroke-miterlimit:4;stroke-dasharray:none"
     id="path46"
     inkscape:connector-curvature="0" />
  <path
     d="m 271.41599,349.27126 0.208,46.832"
     style="stroke:#000000;stroke-width:7;stroke-miterlimit:4;stroke-dasharray:none"
     id="path48"
     inkscape:connector-curvature="0" />
  <path
     d="m 284.52873,348.02223 0.416,46"
     style="stroke:#000000;stroke-width:7;stroke-miterlimit:4;stroke-dasharray:none"
     id="path50"
     inkscape:connector-curvature="0" />
  <path
     d="m 299.72299,345.52526 0.208,44.126"
     style="stroke:#000000;stroke-width:7;stroke-miterlimit:4;stroke-dasharray:none"
     id="path52"
     inkscape:connector-curvature="0" />
  <path
     d="m 313.45999,340.11326 0.417,41.628"
     style="stroke:#000000;stroke-width:7;stroke-miterlimit:4;stroke-dasharray:none"
     id="path54"
     inkscape:connector-curvature="0" />
  <path
     style="fill:none;stroke:#000000;stroke-width:13;stroke-linecap:butt;stroke-linejoin:miter;stroke-miterlimit:4;stroke-opacity:1;stroke-dasharray:none"
     d="m 199.33046,360.70078 c 36.0101,15.36312 73.65695,17.63224 113.79147,0"
     id="path3826"
     inkscape:connector-curvature="0"
     sodipodi:nodetypes="cc" />
  <path
     style="fill:#000000;fill-opacity:1;stroke-width:14;stroke-miterlimit:4;stroke-dasharray:none;marker-start:none;marker-mid:none"
     d="m 317.62588,358.21814 0,-17.59953 1.83483,-0.83601 c 1.537,-0.7003 1.90049,-1.56002 2.23928,-5.29631 0.55716,-6.14441 2.85929,-10.9048 7.53452,-15.58004 2.18094,-2.18094 4.0901,-3.8406 4.24257,-3.68813 0.15247,0.15247 -1.10781,4.2828 -2.80061,9.17851 -4.51937,13.07037 -6.71322,22.07032 -8.86846,36.38155 -1.18978,7.90039 -2.35429,13.20489 -3.05282,13.90601 -0.98981,0.99347 -1.12931,-1.04052 -1.12931,-16.46605 z"
     id="path3832"
     inkscape:connector-curvature="0" />
  <path
     style="fill:#000000;fill-opacity:1;stroke-width:14;stroke-miterlimit:4;stroke-dasharray:none"
     d="m 194.9334,383.22481 c -1.39425,-1.23585 -3.18886,-7.27329 -5.04231,-16.96336 -3.66679,-19.17057 -12.15063,-43.46663 -20.9633,-60.03476 -3.67412,-6.90749 15.52129,7.27302 20.07114,14.82745 1.80152,2.99118 3.67172,8.01893 4.156,11.17282 0.58025,3.77872 1.74284,6.26223 3.40905,7.28233 2.39349,1.46534 2.47529,2.72543 1.53131,23.59115 -0.92425,20.4304 -1.15558,21.90274 -3.16189,20.12437 l 0,0 z"
     id="path4194"
     inkscape:connector-curvature="0" />
  <path
     style="fill:#000000;fill-opacity:1;stroke-width:14;stroke-miterlimit:4;stroke-dasharray:none"
     d="m 314.94609,362.95145 c -2.98066,-21.10977 -2.9237,-22.98517 0.76557,-25.19674 2.44197,-1.46388 4.9763,-5.87877 6.54281,-11.39774 1.90046,-6.69569 4.43067,-10.616 9.85566,-15.27047 6.75661,-5.79691 13.17367,-10.02895 14.52106,-9.57651 0.31053,0.10426 -2.61996,7.10836 -6.51217,15.56465 -8.79915,19.1169 -10.73584,25.02291 -15.25992,46.53539 -1.98484,9.43799 -4.30264,18.28247 -5.15069,19.65439 -0.89545,1.44855 -2.89216,-7.06818 -4.76232,-20.31297 l 0,0 z"
     id="path4196"
     inkscape:connector-curvature="0" />
  <path
     style="fill:none;stroke:#000000;stroke-width:1px;stroke-linecap:butt;stroke-linejoin:miter;stroke-opacity:1"
     d="m 252.6095,247.54274 3.55985,-2.43111 4.7754,2.95207 -0.0868,35.1643 -8.68254,-0.0868 z"
     id="path4202"
     inkscape:connector-curvature="0" />
  <path
     style="fill:#000000;fill-opacity:1;stroke-width:14;stroke-miterlimit:4;stroke-dasharray:none"
     d="m 255.56706,282.63678 -2.55097,-0.0244 0.0382,-17.25654 0.0382,-17.25653 0.34215,-0.34739 c 0.28846,-0.29286 2.63435,-1.95088 2.76026,-1.95088 0.10996,0 3.34317,2.05289 3.55226,2.25547 l 0.23988,0.23241 0.0567,17.20647 0.0567,17.20647 -0.99117,-0.0203 c -0.54514,-0.0112 -2.1391,-0.0313 -3.54214,-0.0447 l 0,0 z"
     id="path4204"
     inkscape:connector-curvature="0" />
  <path
     style="fill:#000000;fill-opacity:1;stroke-width:14;stroke-miterlimit:4;stroke-dasharray:none"
     d="m 252.63954,303.97279 c -0.0914,-0.0841 -0.10421,-6.34656 -0.0573,-28.11502 l 0.0603,-28.00688 0.44226,-0.52792 c 0.58807,-0.70204 2.32976,-2.50623 2.70179,-2.79878 0.29529,-0.2322 0.29841,-0.23075 1.19346,0.55472 1.38187,1.21267 3.2513,3.05452 3.29123,3.24266 0.0197,0.0928 0.0582,12.6777 0.0855,27.9663 l 0.0496,27.79742 -3.18266,-2.07678 c -2.1035,-10e-4 -4.51936,2.02391 -4.58404,1.96447 l 0,0 z"
     id="path4206"
     inkscape:connector-curvature="0"
     sodipodi:nodetypes="csccsscsccccc" />
</svg>
