<?xml version="1.0" encoding="UTF-8" standalone="no"?>
<svg
   xmlns:dc="http://purl.org/dc/elements/1.1/"
   xmlns:cc="http://creativecommons.org/ns#"
   xmlns:rdf="http://www.w3.org/1999/02/22-rdf-syntax-ns#"
   xmlns:svg="http://www.w3.org/2000/svg"
   xmlns="http://www.w3.org/2000/svg"
   width="429.65955"
   height="101.42574"
   viewBox="0 0 429.65953 101.42574"
   id="svg4934"
   version="1.1">
  <defs
     id="defs4936" />
  <metadata
     id="metadata4939">
    <rdf:RDF>
      <cc:Work
         rdf:about="">
        <dc:format>image/svg+xml</dc:format>
        <dc:type
           rdf:resource="http://purl.org/dc/dcmitype/StillImage" />
        <dc:title></dc:title>
      </cc:Work>
    </rdf:RDF>
  </metadata>
  <g
     id="layer1"
     transform="matrix(0.73614775,0,0,0.73614775,236.61311,-161.95297)">
    <path
       id="path3-8-5-1-3-6-0-2-4-5-7-3-3-0"
       d="m -223.31454,257.74446 c 3.20385,-1.03713 7.30114,-1.5992 9.97603,-2.91674 -2.14667,-6.056 -5.32634,-11.71171 -9.49064,-16.63386 -5.01291,1.33768 -10.02583,2.67535 -15.03879,4.01294 3.5767,5.29932 6.36719,11.11876 8.34706,17.19486 2.06878,-0.5524 4.13756,-1.1048 6.20634,-1.6572 z"
       style="fill:#a1d3d3;fill-opacity:1" />
    <path
       id="path4791-3-9-2-1-7-6-8-5-0-6-9-7-3"
       d="m -229.05293,232.10447 c -9.65302,-8.4203 -22.69916,-12.72936 -35.46228,-12.03035 8.24234,3.58173 15.68507,8.97754 21.62584,15.72433 4.61216,-1.23132 9.22428,-2.46265 13.83644,-3.69398 z"
       style="fill:#a1d3d3;fill-opacity:1" />
    <path
       id="path4817-8-9-9-1-3-6-7-3-4-7-0-4-7"
       d="m -295.18295,249.60238 c 1.76224,-8.86481 5.59526,-17.5539 11.04813,-24.59188 -12.00147,5.58838 -21.59915,16.24264 -26.03521,28.59272 4.99566,-1.33363 9.99141,-2.66721 14.98708,-4.00084 z"
       style="fill:#a1d3d3;fill-opacity:1" />
    <path
       id="path4815-6-2-3-0-5-1-3-6-8-3-8-1-0"
       d="m -306.863,280.04584 c 3.75872,-1.25165 8.63589,-1.81934 11.71441,-3.48551 -1.26197,-6.14673 -1.72401,-12.46593 -1.25922,-18.72696 -5.36819,1.44338 -10.77149,2.85406 -16.11769,4.31781 -1.17273,6.39281 -1.21128,12.97572 0.10124,19.37807 1.85375,-0.49445 3.70746,-0.98895 5.56126,-1.48341 z"
       style="fill:#a1d3d3;fill-opacity:1" />
    <path
       id="path4813-0-2-6-3-6-8-6-1-7-6-8-1-6"
       d="m -293.14658,304.27096 c 3.00979,-0.80341 6.01963,-1.60683 9.02952,-2.40996 -3.83265,-5.44353 -6.8549,-11.44847 -9.01422,-17.74335 -5.62298,1.70402 -12.26881,2.86819 -17.25112,4.91205 2.20307,6.26038 5.6066,12.18501 10.02336,17.1663 2.40415,-0.64168 4.8083,-1.28336 7.21246,-1.92504 z"
       style="fill:#a1d3d3;fill-opacity:1" />
    <path
       id="path4811-4-4-8-4-29-7-1-0-1-5-5-3-9"
       d="m -257.54233,323.30502 c -8.05266,-3.0975 -15.57529,-8.52638 -21.41347,-15.08562 -4.99748,1.33512 -9.99556,2.66819 -14.99313,4.00322 10.08629,8.20597 23.47132,12.18622 36.4066,11.0824 z"
       style="fill:#a1d3d3;fill-opacity:1" />
    <path
       id="path4789-8-7-2-3-2-2-9-3-2-3-9-0-2"
       d="m -211.42919,282.45929 c 1.25314,-6.65574 1.35852,-13.38736 0.137,-20.03287 -5.42669,1.44877 -10.85361,2.89675 -16.2804,4.34543 1.25007,6.4887 1.59651,13.15452 0.97929,19.73521 5.05472,-1.3493 10.1094,-2.69851 15.16411,-4.04777 z"
       style="fill:#a1d3d3;fill-opacity:1" />
    <path
       style="fill:#1a1a1a;fill-rule:evenodd;stroke:#000000;stroke-width:1.35842299px;stroke-linecap:butt;stroke-linejoin:miter;stroke-opacity:1"
       d="m -300.55808,355.25761 -19.7214,0.48432 56.76289,-107.58562 44.37533,108.8163 -28.11041,-32.49081 -17.86649,-52.30172 z"
       id="path4149-6-4-1-8-3-6-2-5-3-8-1-9-3-1" />
    <path
       style="fill:#b3b3b3;fill-rule:evenodd;stroke:none;stroke-width:1px;stroke-linecap:butt;stroke-linejoin:miter;stroke-opacity:1"
       d="m -251.20043,255.04293 37.56096,92.48693 -1.32122,-37.93851 z"
       id="path4167-3-46-8-1-5-2-9-5-8-9-7-4-2-7" />
    <path
       id="path4793-8-7-0-0-1-9-2-6-7-6-0-1-7"
       d="m -238.07329,317.71715 c 10.94131,-5.57656 19.53488,-15.23331 24.01995,-26.6681 -4.53436,1.42998 -9.78569,2.18048 -13.88782,4.02015 -1.81492,8.2986 -5.61632,16.09861 -10.65514,22.91036 l 0.46897,-0.23525 0.054,-0.0274 z"
       style="fill:#a1d3d3;fill-opacity:1" />
    <path
       style="fill:#b3b3b3;fill-opacity:1;fill-rule:evenodd;stroke:none;stroke-width:1px;stroke-linecap:butt;stroke-linejoin:miter;stroke-opacity:1"
       d="m -252.74876,332.22856 22.76974,24.01801 -61.80459,-1.26374 z"
       id="path4319-7-4-6-9-9-2-6-6" />
    <text
       xml:space="preserve"
       style="font-style:normal;font-variant:normal;font-weight:normal;font-stretch:normal;font-size:72.10308075px;line-height:125%;font-family:'Liberation Mono';-inkscape-font-specification:'Liberation Mono';text-align:start;writing-mode:lr-tb;text-anchor:start;opacity:0.98999999;fill:#1a1a1a;fill-opacity:1;stroke:none;stroke-width:1.25;stroke-miterlimit:4;stroke-dasharray:none;stroke-opacity:1"
       x="-211.11383"
       y="357.07556"
       id="text4153-4-4-0-91-7-0-3-25-4-2-7-1"><tspan
         id="tspan4155-3-8-5-9-0-2-1-4-9-6-1-5"
         x="-211.11383"
         y="357.07556"
         style="font-weight:bold;fill:#1a1a1a">PEX SYSTEMS</tspan></text>
  </g>
</svg>
